REM DIRINDEX 1\2\6,1\2\7,1\2\8,1\2\9,1\3\10,1\3\11,1\4\12,1\4\13,1\4\14,1\5\15,1\5\16,1\5\17
REM DIRNAME cjc020,folder01,folder02,folder03,folder04,folder05,folder06,folder07,folder08,folder09,folder10,folder11,folder12,folder13,folder14,folder15,folder16
TITLE ""
FILE "1900_3_019 sec04_0301_0315.mp3" MP3
  TRACK 01 AUDIO
    TITLE "0:"
    INDEX 01 00:00:00
  TRACK 02 AUDIO
    TITLE "15:cjc020_6570"
    INDEX 01 00:00:19
  TRACK 03 AUDIO
    TITLE "0:"
    INDEX 01 00:01:71
  TRACK 04 AUDIO
    TITLE "17:cjc020_6571"
    INDEX 01 00:03:00
  TRACK 05 AUDIO
    TITLE "0:"
    INDEX 01 00:04:64
  TRACK 06 AUDIO
    TITLE "16:cjc020_6572"
    INDEX 01 00:04:70
  TRACK 07 AUDIO
    TITLE "0:"
    INDEX 01 00:06:26
  TRACK 08 AUDIO
    TITLE "17:cjc020_6573"
    INDEX 01 00:07:11
  TRACK 09 AUDIO
    TITLE "0:"
    INDEX 01 00:08:17
  TRACK 10 AUDIO
    TITLE "16:cjc020_6574"
    INDEX 01 00:08:21
  TRACK 11 AUDIO
    TITLE "0:"
    INDEX 01 00:09:34
  TRACK 12 AUDIO
    TITLE "17:cjc020_6575"
    INDEX 01 00:10:18
  TRACK 13 AUDIO
    TITLE "0:"
    INDEX 01 00:12:14
  TRACK 14 AUDIO
    TITLE "16:cjc020_6576"
    INDEX 01 00:12:18
  TRACK 15 AUDIO
    TITLE "0:"
    INDEX 01 00:13:24
  TRACK 16 AUDIO
    TITLE "17:cjc020_6577"
    INDEX 01 00:14:11
  TRACK 17 AUDIO
    TITLE "0:"
    INDEX 01 00:14:70
  TRACK 18 AUDIO
    TITLE "16:cjc020_6578"
    INDEX 01 00:14:74
  TRACK 19 AUDIO
    TITLE "0:"
    INDEX 01 00:16:18
  TRACK 20 AUDIO
    TITLE "17:cjc020_6579"
    INDEX 01 00:17:06
  TRACK 21 AUDIO
    TITLE "0:"
    INDEX 01 00:18:31
  TRACK 22 AUDIO
    TITLE "16:cjc020_6580"
    INDEX 01 00:18:39
  TRACK 23 AUDIO
    TITLE "0:"
    INDEX 01 00:19:50
  TRACK 24 AUDIO
    TITLE "17:cjc020_6581"
    INDEX 01 00:20:36
  TRACK 25 AUDIO
    TITLE "0:"
    INDEX 01 00:21:60
  TRACK 26 AUDIO
    TITLE "16:cjc020_6582"
    INDEX 01 00:21:64
  TRACK 27 AUDIO
    TITLE "0:"
    INDEX 01 00:23:03
  TRACK 28 AUDIO
    TITLE "17:cjc020_6583"
    INDEX 01 00:23:61
  TRACK 29 AUDIO
    TITLE "0:"
    INDEX 01 00:26:69
  TRACK 30 AUDIO
    TITLE "16:cjc020_6584"
    INDEX 01 00:26:73
  TRACK 31 AUDIO
    TITLE "0:"
    INDEX 01 00:28:10
  TRACK 32 AUDIO
    TITLE "17:cjc020_6585"
    INDEX 01 00:28:68
  TRACK 33 AUDIO
    TITLE "0:"
    INDEX 01 00:30:12
  TRACK 34 AUDIO
    TITLE "16:cjc020_6586"
    INDEX 01 00:30:16
  TRACK 35 AUDIO
    TITLE "0:"
    INDEX 01 00:31:43
  TRACK 36 AUDIO
    TITLE "17:cjc020_6587"
    INDEX 01 00:32:19
  TRACK 37 AUDIO
    TITLE "0:"
    INDEX 01 00:33:40
  TRACK 38 AUDIO
    TITLE "16:cjc020_6588"
    INDEX 01 00:33:48
  TRACK 39 AUDIO
    TITLE "0:"
    INDEX 01 00:34:63
  TRACK 40 AUDIO
    TITLE "17:cjc020_6589"
    INDEX 01 00:35:45
  TRACK 41 AUDIO
    TITLE "0:"
    INDEX 01 00:36:50
  TRACK 42 AUDIO
    TITLE "16:cjc020_6590"
    INDEX 01 00:36:56
  TRACK 43 AUDIO
    TITLE "0:"
    INDEX 01 00:37:61
  TRACK 44 AUDIO
    TITLE "17:cjc020_6591"
    INDEX 01 00:38:49
  TRACK 45 AUDIO
    TITLE "0:"
    INDEX 01 00:39:68
  TRACK 46 AUDIO
    TITLE "16:cjc020_6592"
    INDEX 01 00:39:70
  TRACK 47 AUDIO
    TITLE "0:"
    INDEX 01 00:41:22
  TRACK 48 AUDIO
    TITLE "17:cjc020_6593"
    INDEX 01 00:42:02
  TRACK 49 AUDIO
    TITLE "0:"
    INDEX 01 00:43:11
  TRACK 50 AUDIO
    TITLE "16:cjc020_6594"
    INDEX 01 00:43:13
  TRACK 51 AUDIO
    TITLE "0:"
    INDEX 01 00:44:34
  TRACK 52 AUDIO
    TITLE "17:cjc020_6595"
    INDEX 01 00:45:16
  TRACK 53 AUDIO
    TITLE "0:"
    INDEX 01 00:46:37
  TRACK 54 AUDIO
    TITLE "16:cjc020_6596"
    INDEX 01 00:46:39
  TRACK 55 AUDIO
    TITLE "0:"
    INDEX 01 00:47:64
  TRACK 56 AUDIO
    TITLE "17:cjc020_6597"
    INDEX 01 00:48:48
  TRACK 57 AUDIO
    TITLE "0:"
    INDEX 01 00:49:65
  TRACK 58 AUDIO
    TITLE "16:cjc020_6598"
    INDEX 01 00:49:72
  TRACK 59 AUDIO
    TITLE "0:"
    INDEX 01 00:51:03
  TRACK 60 AUDIO
    TITLE "17:cjc020_6599"
    INDEX 01 00:51:63
  TRACK 61 AUDIO
    TITLE "0:"
    INDEX 01 00:53:74
  TRACK 62 AUDIO
    TITLE "16:cjc020_6600"
    INDEX 01 00:54:03
  TRACK 63 AUDIO
    TITLE "0:"
    INDEX 01 00:55:42
